<svg width="96" height="96" viewBox="0 0 96 96" fill="none" xmlns="http://www.w3.org/2000/svg">
  <rect x="8" y="20" width="80" height="56" rx="24" fill="#FFF4DE"/>
  <path d="M25 55L31 40C32.1 37.2 34.8 35.3 37.8 35.3H58.2C61.2 35.3 63.9 37.2 65 40L71 55" stroke="#16243A" stroke-width="3.2" stroke-linecap="round"/>
  <path d="M21 55.5C21 52.5 23.5 50 26.5 50H69.5C72.5 50 75 52.5 75 55.5V58.5C75 61.5 72.5 64 69.5 64H26.5C23.5 64 21 61.5 21 58.5V55.5Z" fill="#FFB347" stroke="#16243A" stroke-width="3.2"/>
  <circle cx="31" cy="64" r="6" fill="#16243A"/>
  <circle cx="65" cy="64" r="6" fill="#16243A"/>
  <path d="M35 43H61" stroke="#16243A" stroke-width="3.2" stroke-linecap="round"/>
</svg>
